<?xml version="1.0" encoding="utf-8"?>
<!-- Generator: Adobe Illustrator 27.0.0, SVG Export Plug-In . SVG Version: 6.00 Build 0)  -->
<svg version="1.0" id="Layer_1" xmlns="http://www.w3.org/2000/svg" xmlns:xlink="http://www.w3.org/1999/xlink" x="0px" y="0px"
	 viewBox="0 0 274 214.6" style="enable-background:new 0 0 274 214.6;" xml:space="preserve">
<style type="text/css">
	.st0{fill-rule:evenodd;clip-rule:evenodd;fill:#034EA1;}
	.st1{fill:none;}
	.st2{fill-rule:evenodd;clip-rule:evenodd;fill:none;}
	.st3{fill:#034EA1;}
	.st4{font-family:'MyriadPro-Regular';}
	.st5{font-size:21px;}
	.st6{fill:#034EA1;stroke:#000000;stroke-width:2;stroke-miterlimit:10;}
	.st7{font-size:26px;}
	.st8{font-size:18px;}
</style>
<path class="st0" d="M184.8,178.8c-14,10.3-32.4,12.5-48.3,5.7c-25.3,10.7-54.4-1.3-65-26.8c-3.1-7.4-4.4-15.5-3.7-23.5
	C49.9,113.2,52.2,81.6,73,63.6c6.1-5.3,13.3-9,21.1-10.8c14.2-23.6,44.7-31.2,68.1-16.9c6.8,4.2,12.6,10,16.7,16.9
	c26.7,6.2,43.4,33.1,37.2,60.1c-1.8,7.9-5.5,15.2-10.7,21.3C206.8,151.6,199,168.6,184.8,178.8z M136.5,43.5
	c37.3,0,67.6,30.5,67.6,68.2s-30.3,68.2-67.6,68.2c-37.3,0-67.6-30.5-67.6-68.2c0,0,0,0,0-0.1C68.9,74,99.2,43.5,136.5,43.5z"/>
<path class="st0" d="M146.7,68.3c-2.7-2.3-6.2-4.1-10.5-5.4c7.6-0.1,14.9,0.4,21.8,1.5c-6-0.2-9,0.3-10.5,0.8
	C145.9,65.7,145.9,66.7,146.7,68.3z M162.5,106.8C186.2,85.7,178.4,73,152.3,67c15.6,3.7,6.4,16.9-3.4,23.7
	c-9.8,6.8-23.7,12.6-44.7,18.2c21.9-5.3,37-11.9,45.3-17.9c7.3-5.1,11.7-11.1,12.2-16.7c4.1,11.4-7.9,21.7-30,32.6
	c25.2-11.3,36.6-23,30.1-34.7c12.3,10.9,2.4,23.3-14.1,34.6C167.6,94,175.7,81,161.1,70.4C181,78.4,179.2,90.1,162.5,106.8z"/>
<path class="st0" d="M140.7,119c0-3.1,0.5-5.2,4.9-6.3c5.8-1.1,11.8-0.9,17.5,0.4c7.5,1.4,15.1,1.8,22.6,1.1c-2-1.1-3.6-2.7-4.6-4.7
	c-5.9,0.3-11.9-0.4-17.6-2.2c-5.6-2-11.4-3.1-17.3-3.2c-4.6,0.4-8.3,4-9,8.6c-0.7-4.6-4.4-8.1-9-8.6c-5.9,0.1-11.7,1.2-17.3,3.2
	c-5.7,1.8-11.6,2.5-17.6,2.2c-1,2-2.7,3.7-4.6,4.7c7.6,0.6,15.2,0.2,22.6-1.1c5.8-1.3,11.7-1.5,17.5-0.4c4.4,1.1,4.7,3.1,4.9,6.3
	H140.7z"/>
<path class="st0" d="M136.5,47.7c35,0,63.3,28.6,63.3,63.9c0,35.3-28.4,63.9-63.3,63.9s-63.3-28.6-63.3-63.9l0,0
	C73.2,76.3,101.5,47.7,136.5,47.7z M136.5,49.9c33.8,0,61.3,27.6,61.3,61.7c0,34.1-27.4,61.8-61.2,61.8c-33.8,0-61.3-27.6-61.3-61.7
	c0,0,0-0.1,0-0.1C75.3,77.5,102.7,49.9,136.5,49.9L136.5,49.9z"/>
<rect x="26.1" class="st1" width="186.8" height="188.4"/>
<rect x="128.2" y="47.7" class="st2" width="17.5" height="15.1"/>
<text transform="matrix(1 0 0 1 128.1832 62.6294)" class="st3 st4 st5">∞</text>
<rect x="85" y="124.5" class="st2" width="94.8" height="23.1"/>
<text transform="matrix(1 0 0 1 95.3292 142.9138)" class="st6 st4 st7">U S T C</text>
<rect x="121.7" y="153" class="st2" width="31.6" height="14.7"/>
<text transform="matrix(1 0 0 1 131.8053 170.1842)" class="st3 st4 st8">6</text>
<rect x="183.8" y="104.7" class="st2" width="18.2" height="21.8"/>
<text transform="matrix(1 0 0 1 188.2496 117.4536)" class="st3 st4 st8">3</text>
<rect x="75.6" y="105.2" class="st2" width="14.1" height="12.8"/>
<text transform="matrix(1 0 0 1 77.9619 118.0216)" class="st3 st4 st8">9</text>
</svg>
